:version 1.10
:name ASF
:units
  mass 1
  length 1
  angle deg
:documentation
  ASF file generated by Kaydara
:root
  axis xyz
  order  tx ty tz rx ry rz
  position 0 0 0
  orientation 0 0 0
:bonedata
  begin
    id 1
    name RightUpLegDummy
    direction -1 2.30186e-007 8.31532e-007
    length 4.46685
    axis 0 0 0 xyz
  end
  begin
    id 2
    name RightUpLeg
    direction -2.30187e-007 -1 1.24343e-010
    length 16.4045
    axis -3.49089 -0.000906625 0.000286804 xyz
    dof rx ry rz
  end
  begin
    id 3
    name RightLeg
    direction -2.30181e-007 -1 -4.17157e-009
    length 17.5097
    axis 3.68512 0.0193738 -0.131023 xyz
    dof rx ry rz
  end
  begin
    id 4
    name RightFoot
    direction 8.31421e-007 -4.51202e-011 1
    length 6.49508
    axis 4.81691e-005 -0.120479 -0.188788 xyz
    dof rx ry rz
  end
  begin
    id 5
    name RightToes
    direction 0.00124746 -0.014064 0.9999
    length 3.85082
    axis 0.000481921 0.542163 -0.142578 xyz
    dof rx ry rz
  end
  begin
    id 6
    name SpineDummy
    direction 0.0717043 0.9409 -0.331007
    length 10.0032
    axis 0 0 0 xyz
  end
  begin
    id 7
    name Spine
    direction 2.30186e-007 1 4.58806e-011
    length 9.84055
    axis -0.001389 0.000121418 2.40972e-006 xyz
    dof rx ry rz
  end
  begin
    id 8
    name Spine1
    direction 0 0 0
    length 0
    axis -0.001389 0.000121451 1.30017e-006 xyz
    dof rx ry rz
  end
  begin
    id 9
    name HEadDummy
    direction -0.00347485 0.950688 -0.310128
    length 8.00997
    axis -0.001389 0.000121451 1.30017e-006 xyz
  end
  begin
    id 10
    name HEad
    direction -0.0222688 0.980941 0.193023
    length 5.12695
    axis -0.001389 0.000121451 1.30017e-006 xyz
    dof rx ry rz
  end
  begin
    id 11
    name LeftShoulder1Dummy
    direction 0.988871 0.146793 -0.0242004
    length 3.5792
    axis -0.001389 0.000121451 1.30017e-006 xyz
  end
  begin
    id 12
    name LeftShoulder1
    direction 0.993832 0.108932 0.020779
    length 4.16823
    axis -0.001389 0.000121451 1.30017e-006 xyz
    dof rx ry rz
  end
  begin
    id 13
    name LeftArm
    direction 1 3.44807e-006 -8.31404e-007
    length 9.91437
    axis -23.1894 0.134784 0.967509 xyz
    dof rx ry rz
  end
  begin
    id 14
    name LeftForeArm
    direction 1 3.44842e-006 -8.31581e-007
    length 9.08575
    axis -9.91835 -0.06569 -0.177793 xyz
    dof rx ry rz
  end
  begin
    id 15
    name LeftHand
    direction 0.992938 -0.0411636 0.11126
    length 5.32135
    axis -0.00960232 -0.00340091 0.185173 xyz
    dof rx ry rz
  end
  begin
    id 16
    name RightShoulderDummy
    direction -0.988871 0.146793 -0.0241962
    length 3.5792
    axis -0.001389 0.000121451 1.30017e-006 xyz
  end
  begin
    id 17
    name RightShoulder
    direction -0.993832 0.108933 0.0207785
    length 4.16823
    axis 0.215806 0.000203643 -0.0068026 xyz
    dof rx ry rz
  end
  begin
    id 18
    name RightArm
    direction -1 3.90912e-006 8.31284e-007
    length 9.91437
    axis -23.2009 -0.134239 -0.964101 xyz
    dof rx ry rz
  end
  begin
    id 19
    name RightForeArm
    direction -1 3.90882e-006 8.31502e-007
    length 9.08575
    axis -9.92322 0.0658061 0.178867 xyz
    dof rx ry rz
  end
  begin
    id 20
    name RightHand
    direction -0.992843 -0.0414603 0.112003
    length 5.28593
    axis -0.00960638 0.00330671 -0.185228 xyz
    dof rx ry rz
  end
  begin
    id 21
    name LeftUpLegDummy
    direction 1 -2.30186e-007 -8.31532e-007
    length 4.46685
    axis 0 0 0 xyz
  end
  begin
    id 22
    name LeftUpLeg
    direction -2.30187e-007 -1 6.00931e-010
    length 16.4045
    axis -3.48766 0.00143442 -0.000524262 xyz
    dof rx ry rz
  end
  begin
    id 23
    name LeftLeg
    direction -2.30187e-007 -1 1.6669e-009
    length 17.5097
    axis 3.68178 -0.00654042 -0.000285133 xyz
    dof rx ry rz
  end
  begin
    id 24
    name LeftFoot
    direction 8.31532e-007 -4.54478e-011 1
    length 6.49508
    axis 1.87233e-006 4.66016e-005 -8.6538e-006 xyz
    dof rx ry rz
  end
  begin
    id 25
    name LeftToes
    direction 0.00818058 -0.00485161 0.999955
    length 3.85048
    axis 1.06247e-005 4.65869e-005 -8.65513e-006 xyz
    dof rx ry rz
  end
:hierarchy
  begin
    root RightUpLegDummy SpineDummy LeftUpLegDummy
    RightUpLegDummy RightUpLeg
    RightUpLeg RightLeg
    RightLeg RightFoot
    RightFoot RightToes
    SpineDummy Spine
    Spine Spine1
    Spine1 HEadDummy LeftShoulder1Dummy RightShoulderDummy
    HEadDummy HEad
    LeftShoulder1Dummy LeftShoulder1
    LeftShoulder1 LeftArm
    LeftArm LeftForeArm
    LeftForeArm LeftHand
    RightShoulderDummy RightShoulder
    RightShoulder RightArm
    RightArm RightForeArm
    RightForeArm RightHand
    LeftUpLegDummy LeftUpLeg
    LeftUpLeg LeftLeg
    LeftLeg LeftFoot
    LeftFoot LeftToes
  end

:SAMPLES-PER-SECOND 30
:FULLY-SPECIFIED
:DEGREES
175
root  54.8418 27.1237 34.9509 -162.374 -47.7312 175.789
RightUpLeg  -54.3972 15.9946 -6.56757
RightLeg  78.3607 -5.06323 -18.1288
RightFoot  -25.8353 1.87069 8.52106
RightToes  -18.0738 -0.070983 -0.161157
Spine  14.7621 1.15865 3.03282
Spine1  23.4068 2.3778 2.84706
HEad  15.2631 -11.0796 6.64696
LeftShoulder1  0 -2.42657e-020 -4.95415e-022
LeftArm  9.79124 -27.6137 -97.7553
LeftForeArm  50.8243 -21.5867 -3.96683
LeftHand  0.110675 -11.2602 -1.49351
RightShoulder  0 2.42657e-020 1.07489e-018
RightArm  -41.9987 35.3727 83.1533
RightForeArm  73.2086 5.94211 0.978817
RightHand  -2.19369 14.8542 -16.3477
LeftUpLeg  -37.1689 -10.048 6.32515
LeftLeg  70.1192 1.39425 3.17745
LeftFoot  -32.5575 -0.62999 -2.15714
LeftToes  -28.874 3.33339e-006 -4.73431e-007
176
root  54.5269 26.8086 35.1712 -160.409 -45.8718 174.013
RightUpLeg  -56.5516 16.5112 -9.18346
RightLeg  80.3188 -4.19397 -17.4469
RightFoot  -26.5298 1.86275 8.26758
RightToes  -18.7569 -0.0746381 -0.166753
Spine  14.9361 0.96506 4.10253
Spine1  23.3863 1.1666 5.4613
HEad  14.2851 -11.9144 4.90877
LeftShoulder1  0 -2.42657e-020 -4.95415e-022
LeftArm  10.155 -28.0227 -98.8995
LeftForeArm  51.5422 -22.0172 -4.05369
LeftHand  0.123027 -11.6054 -1.58145
RightShoulder  0 2.42657e-020 1.07489e-018
RightArm  -62.1659 33.3769 74.3372
RightForeArm  48.9032 3.2041 0.549471
RightHand  -1.12008 11.4815 -10.7431
LeftUpLeg  -38.0026 -9.92687 3.98225
LeftLeg  71.8427 1.72127 4.26905
LeftFoot  -33.4472 -0.865134 -2.87879
LeftToes  -28.0453 3.33339e-006 -4.73431e-007
177
root  54.1445 26.7896 35.2044 -159.517 -44.3472 172.753
RightUpLeg  -56.6851 17.3957 -11.0048
RightLeg  80.7767 -4.05051 -17.4851
RightFoot  -26.6914 1.88116 8.29547
RightToes  -19.5391 -0.0789043 -0.173106
Spine  14.9524 0.178308 5.03395
Spine1  23.3382 -1.16398 7.87511
HEad  13.3322 -11.0499 2.90044
LeftShoulder1  0 -2.42657e-020 -4.95415e-022
LeftArm  8.48521 -27.6231 -98.2534
LeftForeArm  49.5814 -22.94 -4.24809
LeftHand  0.0588073 -11.5492 -0.952028
RightShoulder  0 2.42657e-020 1.07489e-018
RightArm  -75.5404 30.1596 68.8053
RightForeArm  44.1328 4.18438 0.729086
RightHand  -1.31788 13.5755 -10.6735
LeftUpLeg  -38.1075 -9.05931 2.02246
LeftLeg  73.3566 1.65168 4.43078
LeftFoot  -31.684 -0.827492 -2.91557
LeftToes  -30.2026 3.33339e-006 -4.73431e-007
178
root  53.7382 27.0172 35.1091 -158.948 -43.3519 171.889
RightUpLeg  -55.7421 18.0096 -12.1701
RightLeg  79.8429 -4.24564 -17.0484
RightFoot  -26.6439 1.82253 8.06354
RightToes  -20.1969 -0.0825589 -0.178403
Spine  14.6626 -0.899443 5.86449
Spine1  23.0098 -3.64186 9.63765
HEad  13.1764 -8.95598 0.745673
LeftShoulder1  0 -2.42657e-020 -4.95415e-022
LeftArm  5.83599 -26.2942 -96.6086
LeftForeArm  46.4904 -23.9173 -4.45838
LeftHand  -0.0129108 -11.1697 -0.238061
RightShoulder  0 2.42657e-020 1.07489e-018
RightArm  -79.4187 26.6786 65.623
RightForeArm  37.9193 9.88201 1.75217
RightHand  -0.884665 19.3791 -4.80933
LeftUpLeg  -38.6133 -8.01917 0.738408
LeftLeg  75.1807 1.21306 3.59946
LeftFoot  -27.1346 -0.558316 -2.31329
LeftToes  -35.5373 3.33339e-006 -4.73431e-007
179
root  53.2808 27.4548 34.9491 -158.454 -42.3906 171.053
RightUpLeg  -53.9665 18.3048 -13.1813
RightLeg  77.8783 -4.82673 -16.8237
RightFoot  -25.7699 1.69368 7.77194
RightToes  -22.1939 -0.0940235 -0.194224
Spine  14.1019 -2.14158 6.23624
Spine1  22.4677 -6.08882 10.3135
HEad  13.1024 -5.86393 -1.47075
LeftShoulder1  0 -2.42657e-020 -4.95415e-022
LeftArm  2.09988 -24.0646 -94.3152
LeftForeArm  45.4429 -24.813 -4.65087
LeftHand  -0.0831784 -10.7028 0.518338
RightShoulder  0 2.42657e-020 1.07489e-018
RightArm  -68.6193 21.6723 64.0489
RightForeArm  27.3161 19.1527 3.50583
RightHand  -0.762037 21.0449 -3.73203
LeftUpLeg  -39.4121 -6.74859 -0.450011
LeftLeg  77.0505 0.67223 2.22611
LeftFoot  -20.7012 -0.275266 -1.50705
LeftToes  -39.7771 3.33339e-006 -4.73431e-007
